<?xml version="1.0" encoding="utf-8"?>
<!-- Generator: Adobe Illustrator 22.1.0, SVG Export Plug-In . SVG Version: 6.00 Build 0)  -->
<svg version="1.1" id="Capa_1" xmlns="http://www.w3.org/2000/svg" xmlns:xlink="http://www.w3.org/1999/xlink" x="0px" y="0px"
	 viewBox="0 0 496 475.3" style="enable-background:new 0 0 496 475.3;" xml:space="preserve">
<style type="text/css">
	.st0{font-family:'Arial-BoldMT';}
	.st1{font-size:110px;}
	.st2{fill:none;stroke:#000000;stroke-width:15;stroke-miterlimit:10;}
</style>
<g>
	<text transform="matrix(1 0 0 1 186.1503 146.6836)" class="st0 st1">0+</text>
</g>
<g>
	<g>
		<path d="M464,275.2v-48h-32v-40h-48v80h-56v-8c0-13.2-10.8-24-24-24c-6.2,0-11.7,2.4-16,6.2c-4.3-3.8-9.8-6.2-16-6.2
			s-11.7,2.4-16,6.2c-4.3-3.8-9.8-6.2-16-6.2s-11.7,2.4-16,6.2c-4.3-3.8-9.8-6.2-16-6.2c-13.2,0-24,10.8-24,24c-8,0-15.3,3.1-21,8
			l-51,0v-80H64v40H32v48H0v48h32v48h32v40h48v-80h40v30.1c0,8.5,3.3,16.6,9.4,22.6l17.9,17.9c3,3,4.7,7.1,4.7,11.3v46.1h-32v16h184
			v-16h-32v-42.8c0-6.3,2.6-12.5,7-17l5.3-5.3c7.6-7.6,11.7-17.6,11.7-28.3v-34.7h56v80h48v-40h32v-48h32v-48H464z M32,307.2H16v-16
			h16V307.2z M96,395.2H80v-120H64v80H48v-112h16v16h16v-56h16V395.2z M152,291.2v24h-40v-32l41.1,0
			C152.5,285.8,152,288.5,152,291.2z M264,259.2c0-4.4,3.6-8,8-8s8,3.6,8,8v48c0,4.4-3.6,8-8,8s-8-3.6-8-8V259.2z M232,301
			c4.9-4.4,8-10.7,8-17.8s-3.1-13.4-8-17.8v-6.2c0-4.4,3.6-8,8-8s8,3.6,8,8v48c0,4.4-3.6,8-8,8s-8-3.6-8-8V301z M208,251.2
			c4.4,0,8,3.6,8,8h-16C200,254.8,203.6,251.2,208,251.2z M312,366c0,6.4-2.5,12.4-7,17l-5.3,5.3c-7.6,7.6-11.7,17.6-11.7,28.3v42.8
			h-88v-46.1c0-8.4-3.4-16.7-9.4-22.6l-17.9-17.9c-3-3-4.7-7-4.7-11.3v-70.1c0-8.8,7.2-16,16-16h32c4.4,0,8,3.6,8,8s-3.6,8-8,8h-32
			v8v6.1v1.9c0,2.4,0.4,4.6,1.1,6.8c2.5,10.5,9.4,19.4,19.3,24.4c7.1,3.6,11.6,10.7,11.6,18.7v22.1h16v-22.1
			c0-11.2-5-21.5-13.5-28.4c2-1,3.8-2.2,5.5-3.7c4.3,3.8,9.8,6.2,16,6.2s11.7-2.4,16-6.2c4.3,3.8,9.8,6.2,16,6.2s11.7-2.4,16-6.2
			c4.3,3.8,9.8,6.2,16,6.2c2.8,0,5.5-0.6,8-1.5V366z M216,307.3c0,4.4-3.6,8-8,8c-3.2,0-5.9-1.9-7.2-4.6c-0.3-1.1-0.6-2.2-0.8-3.4
			L216,307.3z M312,299.2v8c0,4.4-3.6,8-8,8s-8-3.6-8-8v-48c0-4.4,3.6-8,8-8s8,3.6,8,8V299.2z M384,315.2h-56v-8v-8v-16h56V315.2z
			 M448,355.2h-16v-16h-16v56h-16v-192h16v120h16v-80h16V355.2z M480,307.2h-16v-16h16V307.2z"/>
	</g>
</g>
<circle class="st2" cx="248.9" cy="107.2" r="99.7"/>
</svg>
