<?xml version="1.0" encoding="utf-8"?>
<!-- Generator: Adobe Illustrator 22.1.0, SVG Export Plug-In . SVG Version: 6.00 Build 0)  -->
<svg version="1.1" id="Layer_1" xmlns="http://www.w3.org/2000/svg" xmlns:xlink="http://www.w3.org/1999/xlink" x="0px" y="0px"
	 viewBox="0 0 757.2 407.6" style="enable-background:new 0 0 757.2 407.6;" xml:space="preserve">
<g>
	<g>
		<path d="M511.2,244.8c-1.4-2.8-4.2-4.6-7.3-4.6H233.4l52.2-53.3c0.4-0.5,0.8-0.9,1.1-1.5c0.3-0.3,0.6-0.6,0.9-0.9
			c12-14.6,18.6-33.1,18.6-52.1c0-45.3-36.8-82.1-82.1-82.1c-21.3,0-41.4,8.1-56.7,22.8c0,0-0.1,0.1-0.1,0.1l-0.1,0.1
			c-0.4,0.3-0.7,0.7-1.1,1c-0.2,0.2-0.3,0.3-0.5,0.5L33,207.3c0,0,0,0,0,0c-44,44-44,115.6,0,159.6c26,26,61.6,40.7,98.4,40.7
			c1.5,0,2.9,0,4.4-0.1h179.1c4.5,0,8.1-3.6,8.1-8.1s-3.6-8.1-8.1-8.1H135.7c-0.1,0-0.2,0-0.3,0c-34.3,1.2-66.6-11.6-90.9-35.9
			c-37.7-37.7-37.7-98.9,0-136.6c14.3-14.3,33.3-22.2,53.5-22.2c7.7,0,15.3,1.2,22.4,3.4l-41.6,38.6c-1.1,0.9-2.1,1.8-3.1,2.8
			c-9.6,9.6-14.9,22.4-14.9,36.1c0,13.6,5.3,26.4,14.9,36.1c11.7,11.7,27.2,18.1,43.6,18.1c0,0,0,0,0,0c16.5,0,32-6.4,43.6-18.1
			c3-3,5.6-6.1,8-9.4l46.5-47.6h269.7L381.3,391.3h-36.1c-4.5,0-8.1,3.6-8.1,8.1s3.6,8.1,8.1,8.1h40c2.5,0,4.8-1.1,6.4-3.1
			l118.6-151C512.2,251,512.5,247.6,511.2,244.8z M136.6,207.2c4.5,2.7,8.8,5.9,12.7,9.5l-19.9,19.5c-5.1-3.5-10.9-5.7-17-6.7
			L136.6,207.2z M158.4,293.6L158.4,293.6c-0.6,0.6-1.1,1.3-1.5,2c-1.7,2.2-3.5,4.4-5.5,6.4c-8.6,8.6-20,13.3-32.2,13.3
			c-12.2,0-23.6-4.7-32.2-13.3c-6.6-6.6-10.2-15.3-10.2-24.6c0-9.3,3.6-18,10.2-24.6c4.9-4.9,11.5-7.7,18.5-7.7h0
			c7,0,13.6,2.7,18.5,7.7c0.1,0.1,0.2,0.2,0.3,0.3c0.1,0.1,0.2,0.2,0.3,0.3c0.1,0.1,0.2,0.2,0.3,0.3c0.1,0.1,0.2,0.2,0.3,0.2
			c0.1,0.1,0.2,0.1,0.4,0.2c0.1,0.1,0.2,0.1,0.3,0.2c0.1,0.1,0.3,0.1,0.4,0.2c0.1,0.1,0.2,0.1,0.3,0.2c0.1,0.1,0.3,0.1,0.4,0.1
			c0.1,0,0.2,0.1,0.3,0.1c0.1,0,0.3,0.1,0.4,0.1c0.1,0,0.2,0.1,0.3,0.1c0.1,0,0.3,0,0.4,0.1c0.1,0,0.2,0,0.3,0c0.1,0,0.3,0,0.5,0
			c0.1,0,0.2,0,0.3,0c0.3,0,0.5,0,0.8,0c0,0,0.1,0,0.1,0c0.2,0,0.5-0.1,0.7-0.1c0.1,0,0.2,0,0.2-0.1c0.2,0,0.4-0.1,0.5-0.1
			c0.1,0,0.2-0.1,0.3-0.1c0.2-0.1,0.3-0.1,0.5-0.2c0.1,0,0.2-0.1,0.3-0.1c0.1-0.1,0.3-0.1,0.4-0.2c0.1-0.1,0.2-0.1,0.3-0.2
			c0.1-0.1,0.3-0.1,0.4-0.2c0.1-0.1,0.2-0.1,0.3-0.2c0.1-0.1,0.2-0.2,0.4-0.3c0.1-0.1,0.2-0.2,0.3-0.2c0.1-0.1,0.2-0.2,0.3-0.3
			l24.2-23.7c5.8,9.3,8.9,20,8.9,31.2C168.7,272.5,165.1,283.9,158.4,293.6z M184.6,266.9c1.7-19.4-4.2-39.2-17.4-54.9
			c-0.2-0.3-0.4-0.6-0.7-0.8c0,0,0,0,0,0c-1.1-1.3-2.3-2.6-3.6-3.8c-17.4-17.4-40.4-26.9-65-26.9c0,0,0,0,0,0
			c-5.6,0-11.1,0.5-16.6,1.5l97.1-97c12.3-11.8,28.4-18.3,45.5-18.3c36.3,0,65.9,29.6,65.9,65.9c0,15.2-5.3,30-14.9,41.8
			c-0.2,0.3-0.5,0.6-0.6,0.9c-0.1,0.1-0.3,0.2-0.4,0.4L184.6,266.9z"/>
	</g>
</g>
<g>
	<path d="M585.4,55c-30.5-30.1-79.8-29.9-110,0.6c-30.1,30.5-29.9,79.8,0.6,110c0.6,0.6,1.3,1.1,2.2,1.8c1.5,1.4,3.5,2.2,5.6,2.2
		c0.8,0,1.6-0.1,2.4-0.3c2.8-0.8,4.9-3.1,5.6-5.9c5.4-22.4,16.8-42.8,32.8-59C540.7,88,561,76.5,583.4,70.8c2.8-0.7,5-3,5.8-5.8
		c0.8-2.8,0-6-2.1-8.1C586.8,56.6,585.7,55.2,585.4,55z M513,92.6c-14.6,14.8-25.8,32.6-32.8,52.2c-16.3-23.7-14-56.5,7-77.7
		c20.9-21.2,53.6-23.9,77.6-7.9C545.2,66.5,527.5,77.9,513,92.6z M714.9,91.5c-24.6-24.3-56.9-38.7-91.4-40.8
		c-4.4-6.9-9.5-13.3-15.1-18.8c-20.9-20.7-49-32.7-78.2-31.8c-29.5,0.2-57.1,11.8-77.8,32.7c-42.7,43.2-42.3,113.2,0.9,156
		c5.6,5.6,12,10.6,19,14.9c0.3,4.8,1.3,9.6,2.1,14.4l-80,0.2l-0.2-60.4c0-4.5-3.7-8.2-8.2-8.2h0l-66.2,0.2c-2.2,0-4.3,0.9-5.8,2.4
		c-1.6,1.6-2.4,3.6-2.4,5.8l0.1,34.7l-34.6,0.1c-4.5,0-8.2,3.7-8.2,8.3l0.3,100c0,2.2,0.9,4.3,2.4,5.8c1.6,1.5,3.6,2.4,5.8,2.4l0,0
		l34.7-0.1l0.1,34.7c0,4.5,3.7,8.2,8.2,8.2h0l66.2-0.2c2.2,0,4.3-0.9,5.8-2.4c1.6-1.5,2.4-3.6,2.4-5.8l-0.2-60.4l122.2-0.3l0.2,60.4
		c0,4.5,3.7,8.2,8.2,8.2l0,0l66.2-0.2c2.2,0,4.3-0.9,5.8-2.4c1.6-1.5,2.4-3.6,2.4-5.8l0-8.1c5.1,0.5,10.2,0.9,15.3,0.9
		c37.9,0,74.1-15,101.3-42.4C771.4,237.5,770.9,146.9,714.9,91.5z M285.5,292.7l-0.2-83.5l26.4-0.1l0.2,83.6L285.5,292.7z
		 M328.5,335.5L328,166.2l49.7-0.1l0.5,169.3L328.5,335.5z M394.5,266.7l-0.1-32l122.2-0.3l0.1,32L394.5,266.7z M533.3,335
		l-0.5-169.3l49.7-0.1l0.5,169.4L533.3,335z M599.1,208.3l26.4-0.1l0.2,83.6l-26.4,0L599.1,208.3z M704.3,281.9
		c-27.6,27.9-65.8,41.2-104.8,36.6l0-10.1l34.6-0.1c2.2,0,4.3-0.9,5.8-2.4c1.5-1.5,2.4-3.6,2.4-5.8L642,200c0-4.5-3.7-8.2-8.2-8.2h0
		l-34.7,0.1l-0.1-34.6c0-4.5-3.7-8.2-8.2-8.2l0,0l-66.2,0.2c-2.2,0-4.3,0.9-5.8,2.4c-1.5,1.5-2.4,3.6-2.4,5.8l0.2,60.4l-25.7,0.1
		c-1.2-6.4-2.2-12.9-2.4-19.5c-0.1-2.8-1.7-5.4-4.2-6.8c-7.3-4.2-13.9-9.1-19.5-14.7c-36.8-36.4-37.1-95.9-0.7-132.7
		c17.6-17.8,41.1-27.6,66.2-27.8c0.2,0,0.3,0,0.5,0c24.9,0,48.3,9.6,65.9,27.1c5.6,5.6,10.7,12.1,14.8,19.3c1.4,2.5,4,4,6.9,4.1
		c32,1,62.2,13.9,84.9,36.3C752.8,152.2,753.3,232.3,704.3,281.9z"/>
</g>
</svg>
