<?xml version="1.0" encoding="utf-8"?>
<!-- Generator: Adobe Illustrator 22.0.1, SVG Export Plug-In . SVG Version: 6.00 Build 0)  -->
<svg version="1.1" id="Слой_1" xmlns="http://www.w3.org/2000/svg" xmlns:xlink="http://www.w3.org/1999/xlink" x="0px" y="0px"
	 viewBox="0 0 1080 1080" style="enable-background:new 0 0 1080 1080;" xml:space="preserve">
<style type="text/css">
	.st0{fill:url(#SVGID_1_);}
	.st1{fill:#FFFFFF;}
</style>
<g>
	<g>
		<radialGradient id="SVGID_1_" cx="341.2122" cy="1094.3551" r="1272.1381" gradientUnits="userSpaceOnUse">
			<stop  offset="9.693880e-02" style="stop-color:#FFD879"/>
			<stop  offset="0.1539" style="stop-color:#FCCB76"/>
			<stop  offset="0.2583" style="stop-color:#F5AA6C"/>
			<stop  offset="0.3976" style="stop-color:#E9755E"/>
			<stop  offset="0.449" style="stop-color:#E45F58"/>
			<stop  offset="0.6786" style="stop-color:#D22A9C"/>
			<stop  offset="1" style="stop-color:#6968DF"/>
		</radialGradient>
		<path class="st0" d="M1020,822.8c0,108.9-88.3,197.2-197.2,197.2H257.2C148.3,1020,60,931.7,60,822.8V257.2
			C60,148.3,148.3,60,257.2,60h565.6c108.9,0,197.2,88.3,197.2,197.2V822.8z"/>
		<g>
			<path class="st1" d="M678.9,178H401.1C277.9,178,178,277.9,178,401.1v277.8c0,123.2,99.9,223,223.1,223h277.9
				c123.2,0,223.1-99.9,223.1-223V401.1C902,277.9,802.1,178,678.9,178z M832.5,652.3c0,99.6-80.7,180.2-180.2,180.2H427.7
				c-99.6,0-180.3-80.7-180.3-180.2V427.7c0-99.5,80.7-180.3,180.3-180.3h224.5c99.5,0,180.2,80.7,180.2,180.3V652.3z"/>
			<path class="st1" d="M549.7,350.6c-105.4,0-190.7,85.4-190.7,190.7C359,646.5,444.4,732,549.7,732
				c105.3,0,190.7-85.4,190.7-190.7C740.4,435.9,655,350.6,549.7,350.6z M549.7,656c-63.4,0-114.8-51.4-114.8-114.7
				c0-63.4,51.3-114.7,114.8-114.7c63.3,0,114.7,51.3,114.7,114.7C664.4,604.6,613.1,656,549.7,656z"/>
			<path class="st1" d="M775.7,347.6c0,26.8-21.8,48.5-48.5,48.5c-26.8,0-48.5-21.7-48.5-48.5c0-26.8,21.7-48.5,48.5-48.5
				C753.9,299.1,775.7,320.8,775.7,347.6z"/>
		</g>
	</g>
</g>
</svg>
