<svg width="158" height="158" viewBox="0 0 158 158" fill="none" xmlns="http://www.w3.org/2000/svg">
<g filter="url(#filter0_d)">
<rect x="4" width="150" height="150" fill="url(#paint0_linear)"/>
<path d="M76.7289 79.935C77.0123 91.7887 67.5671 101.706 55.7135 101.989C55.5246 101.989 55.3829 101.989 55.194 101.989C43.5292 101.989 33.9424 92.6387 33.659 80.974C33.4701 72.0955 38.8067 63.8783 47.0239 60.5252C47.7795 60.2419 48.6296 60.5725 48.9602 61.3281C49.2435 62.0837 48.913 62.9337 48.1573 63.2643C41.0735 66.1923 36.4454 73.2762 36.587 80.9267C36.8232 91.1747 45.371 99.4392 55.619 99.0614C65.867 98.8253 73.9898 90.2774 73.7537 80.0295C73.7537 79.2266 74.3676 78.5655 75.1705 78.5182C76.0678 78.5655 76.6817 79.1322 76.7289 79.935ZM50.9909 80.5489C50.9437 78.7544 52.0771 77.1959 53.6355 76.582L53.2577 60.4308C53.2577 59.6279 53.8717 58.9196 54.6745 58.9196C55.4773 58.9668 56.1857 59.5335 56.1857 60.3363L56.5635 76.4875C58.1692 77.0542 59.3498 78.5655 59.3971 80.3128C59.4443 81.4462 59.0193 82.4852 58.2164 83.288C57.4608 84.0909 56.4219 84.5631 55.2884 84.6104H55.194C52.8799 84.6576 51.0381 82.863 50.9909 80.5489ZM56.4219 80.4545C56.4219 79.7933 55.8551 79.2266 55.194 79.2266C54.4856 79.2266 53.9189 79.7933 53.9189 80.5017C53.9189 81.1629 54.4856 81.7296 55.194 81.7296V83.1936L55.2412 81.7296C55.5718 81.7296 55.9024 81.5879 56.0913 81.3518C56.3274 81.0684 56.4219 80.7851 56.4219 80.4545ZM105.914 84.1853C90.755 77.432 81.6404 86.9244 81.5459 87.0189C80.9792 87.6328 81.0265 88.5301 81.6404 89.0968C81.9237 89.3801 82.3016 89.4746 82.6321 89.4746C83.0099 89.4746 83.435 89.3329 83.7183 89.0023C83.8128 88.9079 91.4633 80.9267 104.734 86.83C105.442 87.1605 106.339 86.83 106.67 86.0744C106.953 85.4132 106.623 84.5159 105.914 84.1853ZM129.433 85.2243C130.188 87.3494 130.188 89.2385 129.338 90.9386C127.827 94.0555 124.144 95.0472 124.002 95.0945C114.651 99.1086 107.142 100.384 101.334 100.384C93.5885 100.384 88.9604 98.1169 87.0241 96.889C81.5459 100.667 75.5483 98.9198 75.3121 98.8253C75.0288 98.7308 74.7927 98.5419 74.651 98.353C69.8812 103.69 63.0335 107.09 55.3357 107.279H54.6745C40.2234 107.279 28.2281 95.5195 27.8503 81.0684C27.6614 73.8901 30.306 67.0896 35.2647 61.942C39.3734 57.6445 44.6626 54.9054 50.4714 54.0081L50.4242 50.9856C48.8657 50.1828 47.9212 48.9077 47.9212 47.4437C47.874 46.1214 48.6296 44.7991 49.9992 43.949C51.1798 43.1934 52.691 42.7211 54.2967 42.7211C55.9024 42.7211 57.4608 43.0517 58.6415 43.7601C60.0582 44.6102 60.8611 45.838 60.9083 47.1603C60.9555 48.6243 60.0582 49.9467 58.547 50.844L58.6415 54.0081C62.0417 54.5276 65.2531 55.661 68.1338 57.3611L69.4089 55.7554C69.0311 54.6692 69.1728 53.6303 69.7867 52.8747C70.4007 52.0718 71.4396 51.6468 72.6203 51.7885C73.5648 51.8829 74.5565 52.308 75.4066 52.9691C77.4373 54.5276 78.0985 56.8888 76.9178 58.4001C76.3039 59.2029 75.3121 59.5335 74.2259 59.4863L73.0453 61.0447C75.3121 63.1699 77.2484 65.7201 78.6652 68.5064C81.4043 67.5146 90.8966 65.0589 97.0832 75.4013C99.1611 74.4568 103.364 72.9928 107.52 73.9846C106.151 68.1286 107.615 61.7531 108.37 59.2501C104.309 59.7696 100.011 59.5807 98.0277 59.2501C97.5082 59.1557 96.7999 58.6362 96.6109 58.1167C96.5637 57.9278 96.422 57.6445 96.5165 57.1722C95.8553 57.2194 95.2414 57.125 94.7219 56.8888C94.4386 56.7472 93.6829 56.3694 93.2579 53.8192C93.0218 52.3552 92.9746 50.3717 94.1552 49.1911C96.5165 46.8298 108.937 43.524 111.959 45.5547C115.69 48.0104 119.704 54.2914 123.199 59.9585L123.53 60.478C132.03 74.4096 130.236 82.9102 129.433 85.2243ZM72.1952 56.7944L70.5423 58.9668C70.5896 59.014 70.6368 59.0612 70.684 59.1085L72.3369 56.9361C72.7147 56.4638 73.3287 56.2749 73.9426 56.4166C74.3204 56.5583 74.5565 56.511 74.6038 56.4638C74.5093 56.4638 74.2732 55.8027 73.5176 55.2359C72.8564 54.7165 72.2897 54.622 72.0063 54.6692C72.0536 54.7165 72.1008 54.9054 72.2897 55.1415C72.6203 55.6138 72.5731 56.2749 72.1952 56.7944ZM53.3994 53.6775C53.5883 53.6775 53.8244 53.6303 54.0606 53.6303H54.7217C55.0523 53.6303 55.3357 53.6775 55.6662 53.6775L55.5718 49.8994C55.5718 49.2855 55.9024 48.7188 56.4691 48.4827C57.4608 48.0576 57.9331 47.4909 57.9331 47.1603C57.9331 46.877 57.6497 46.4992 57.1302 46.2158C56.4219 45.7908 55.3829 45.5547 54.3439 45.6019C53.305 45.6491 52.266 45.8853 51.6048 46.3575C51.1326 46.6881 50.8492 47.0187 50.8492 47.3493C50.8492 47.7271 51.3215 48.2465 52.3604 48.6243C52.9271 48.8132 53.3522 49.38 53.3522 49.9939L53.3994 53.6775ZM78.5707 79.8878C78.2874 67.0424 67.5671 56.5583 54.7217 56.5583H54.155C47.7323 56.7472 41.7819 59.3918 37.3899 63.9727C32.9979 68.6008 30.6366 74.6457 30.7783 81.0212C31.0616 93.8666 41.7819 104.351 54.6273 104.351H55.194C68.4172 104.02 78.8541 93.0638 78.5707 79.8878ZM126.505 84.5631C126.552 84.5159 130 76.6764 120.885 61.8948L120.554 61.3753C118.146 57.4556 113.659 50.1828 110.212 47.8687C108.512 46.9714 97.8388 49.4272 96.1387 51.1745C95.8553 51.5523 95.997 53.2052 96.2804 54.1498C96.9415 54.1025 98.2166 53.6775 99.2556 53.2052C99.9167 52.8747 100.672 53.1108 101.05 53.6775C101.475 54.2442 101.428 55.047 100.908 55.5665C100.672 55.8499 100.389 56.1332 100.153 56.4166C103.695 56.6527 109.456 56.4638 112.762 54.9998C113.518 54.6692 114.368 54.9998 114.698 55.7554C115.029 56.511 114.698 57.3611 113.943 57.6917C113.187 58.0223 112.29 58.3056 111.393 58.5417C111.393 58.6834 111.393 58.8251 111.345 58.9668C111.298 59.0612 108.134 68.6481 111.015 75.4958C113.612 77.2904 115.454 80.2656 116.54 84.3742C116.729 85.1771 116.257 85.9799 115.501 86.1688C115.36 86.216 115.265 86.216 115.123 86.216C114.462 86.216 113.896 85.791 113.707 85.1298C112.62 80.974 110.684 78.2349 107.945 77.1015C103.128 75.0708 97.1777 78.471 97.0832 78.5182C96.7526 78.7071 96.3276 78.7544 95.9498 78.6599C95.572 78.5655 95.2414 78.2821 95.0525 77.9043C90.0466 68.223 82.1126 70.2065 79.7514 71.0566C80.7903 73.7957 81.4043 76.7237 81.4987 79.7933C81.6404 85.8382 79.7041 91.5053 76.4456 96.039C77.579 96.3223 82.1126 97.1252 86.0796 93.9138C86.6463 93.4888 87.4019 93.4888 87.9686 93.9138C88.0631 94.0083 99.0195 102.556 123.057 92.2609C123.293 92.1665 125.796 91.4581 126.694 89.569C127.213 88.5301 127.119 87.255 126.505 85.7438C126.316 85.4132 126.316 84.9882 126.505 84.5631Z" fill="url(#paint1_linear)"/>
</g>
<defs>
<filter id="filter0_d" x="0" y="0" width="158" height="158" filterUnits="userSpaceOnUse" color-interpolation-filters="sRGB">
<feFlood flood-opacity="0" result="BackgroundImageFix"/>
<feColorMatrix in="SourceAlpha" type="matrix" values="0 0 0 0 0 0 0 0 0 0 0 0 0 0 0 0 0 0 127 0"/>
<feOffset dy="4"/>
<feGaussianBlur stdDeviation="2"/>
<feColorMatrix type="matrix" values="0 0 0 0 0 0 0 0 0 0 0 0 0 0 0 0 0 0 0.25 0"/>
<feBlend mode="normal" in2="BackgroundImageFix" result="effect1_dropShadow"/>
<feBlend mode="normal" in="SourceGraphic" in2="effect1_dropShadow" result="shape"/>
</filter>
<linearGradient id="paint0_linear" x1="78.9999" y1="0" x2="78.9999" y2="150" gradientUnits="userSpaceOnUse">
<stop stop-color="#323232"/>
<stop offset="1" stop-color="#383838"/>
</linearGradient>
<linearGradient id="paint1_linear" x1="78.4617" y1="42.7211" x2="78.4617" y2="107.279" gradientUnits="userSpaceOnUse">
<stop stop-color="#D9A142"/>
<stop offset="1" stop-color="#F2DA6F"/>
</linearGradient>
</defs>
</svg>
