<svg width="158" height="158" viewBox="0 0 158 158" fill="none" xmlns="http://www.w3.org/2000/svg">
<g filter="url(#filter0_d)">
<rect x="4" width="150" height="150" fill="url(#paint0_linear)"/>
<path d="M72.5889 38.5568C74.1333 38.5568 75.3405 39.1079 76.2105 40.2099C77.2474 41.515 77.7658 43.6793 77.7658 46.7027C77.7658 49.7189 77.2437 51.8868 76.1997 53.2064C75.3369 54.294 74.1333 54.8377 72.5889 54.8377C71.0373 54.8377 69.7866 54.2432 68.8368 53.0541C67.887 51.8578 67.4121 49.7298 67.4121 46.6701C67.4121 43.6684 67.9341 41.5078 68.9782 40.1882C69.841 39.1006 71.0446 38.5568 72.5889 38.5568ZM72.5889 41.0909C72.2192 41.0909 71.8893 41.2105 71.5993 41.4498C71.3092 41.6818 71.0845 42.1023 70.925 42.7113C70.7147 43.5016 70.6096 44.8321 70.6096 46.7027C70.6096 48.5733 70.7038 49.8603 70.8923 50.5636C71.0808 51.2596 71.3165 51.7237 71.5993 51.9557C71.8893 52.1877 72.2192 52.3037 72.5889 52.3037C72.9587 52.3037 73.2886 52.1877 73.5786 51.9557C73.8686 51.7164 74.0934 51.2923 74.2529 50.6832C74.4632 49.9002 74.5683 48.5733 74.5683 46.7027C74.5683 44.8321 74.4741 43.5488 74.2856 42.8527C74.097 42.1494 73.8578 41.6818 73.5678 41.4498C73.285 41.2105 72.9587 41.0909 72.5889 41.0909Z" fill="url(#paint1_linear)"/>
<path d="M83.9758 52.2711V48.1274H79.7995V45.2671H83.9758V41.1235H86.76V45.2671H90.9471V48.1274H86.76V52.2711H83.9758Z" fill="url(#paint2_linear)"/>
<path d="M122.738 82.6135V72.8942H116.258V64.7947H106.539V80.9936H95.1995V79.3737C95.1995 76.7009 93.0126 74.5141 90.3398 74.5141C89.0844 74.5141 87.9707 75 87.1001 75.7695C86.2294 75 85.1157 74.5141 83.8603 74.5141C82.6049 74.5141 81.4912 75 80.6205 75.7695C79.7498 75 78.6362 74.5141 77.3807 74.5141C76.1253 74.5141 75.0117 75 74.141 75.7695C73.2703 75 72.1566 74.5141 70.9012 74.5141C68.2284 74.5141 66.0415 76.7009 66.0415 79.3737C64.4217 79.3737 62.9435 80.0014 61.7893 80.9936H51.4626V64.7947H41.7433V72.8942H35.2637V82.6135H28.7842V92.3328H35.2637V102.052H41.7433V110.152H51.4626V93.9527H59.562V100.048C59.562 101.769 60.2302 103.409 61.4654 104.624L65.0899 108.248C65.6973 108.856 66.0415 109.686 66.0415 110.536V119.871H59.562V123.111H96.8194V119.871H90.3398V111.204C90.3398 109.929 90.8663 108.673 91.7572 107.762L92.8304 106.689C94.3693 105.15 95.1995 103.125 95.1995 100.959V93.9324H106.539V110.131H116.258V102.032H122.738V92.3126H129.217V82.5932L122.738 82.6135ZM35.2637 89.093H32.024V85.8533H35.2637V89.093ZM48.2228 106.912H44.983V82.6135H41.7433V98.8123H38.5035V76.1339H41.7433V79.3737H44.983V68.0345H48.2228V106.912ZM59.562 85.8533V90.7129H51.4626V84.2334H59.7847C59.6632 84.7598 59.562 85.3065 59.562 85.8533ZM82.2404 79.3737C82.2404 78.4828 82.9694 77.7538 83.8603 77.7538C84.7512 77.7538 85.4802 78.4828 85.4802 79.3737V89.093C85.4802 89.984 84.7512 90.7129 83.8603 90.7129C82.9694 90.7129 82.2404 89.984 82.2404 89.093V79.3737ZM75.7609 87.8376C76.753 86.9467 77.3807 85.671 77.3807 84.2334C77.3807 82.7957 76.753 81.5201 75.7609 80.6291V79.3737C75.7609 78.4828 76.4898 77.7538 77.3807 77.7538C78.2717 77.7538 79.0006 78.4828 79.0006 79.3737V89.093C79.0006 89.984 78.2717 90.7129 77.3807 90.7129C76.4898 90.7129 75.7609 89.984 75.7609 89.093V87.8376ZM70.9012 77.7538C71.7921 77.7538 72.5211 78.4828 72.5211 79.3737H69.2813C69.2813 78.4828 70.0103 77.7538 70.9012 77.7538ZM91.9597 100.999C91.9597 102.295 91.4535 103.51 90.5423 104.441L89.4691 105.515C87.9303 107.054 87.1001 109.078 87.1001 111.245V119.911H69.2813V110.577C69.2813 108.876 68.5929 107.195 67.378 106.001L63.7535 102.376C63.146 101.769 62.8018 100.959 62.8018 100.088V85.8938C62.8018 84.1119 64.2597 82.654 66.0415 82.654H72.5211C73.412 82.654 74.141 83.3829 74.141 84.2739C74.141 85.1648 73.412 85.8938 72.5211 85.8938H66.0415V87.5136V88.7488V89.1335C66.0415 89.6195 66.1225 90.065 66.2643 90.5104C66.7705 92.6365 68.1676 94.4387 70.1723 95.4511C71.6099 96.18 72.5211 97.6177 72.5211 99.2376V103.712H75.7609V99.2376C75.7609 96.9697 74.7484 94.8841 73.0273 93.487C73.4323 93.2845 73.7967 93.0415 74.141 92.7378C75.0117 93.5072 76.1253 93.9932 77.3807 93.9932C78.6362 93.9932 79.7498 93.5072 80.6205 92.7378C81.4912 93.5072 82.6049 93.9932 83.8603 93.9932C85.1157 93.9932 86.2294 93.5072 87.1001 92.7378C87.9707 93.5072 89.0844 93.9932 90.3398 93.9932C90.9068 93.9932 91.4535 93.8717 91.9597 93.6895V100.999ZM72.5211 89.1133C72.5211 90.0042 71.7921 90.7332 70.9012 90.7332C70.2533 90.7332 69.7065 90.3484 69.4433 89.8017C69.3826 89.579 69.3218 89.3563 69.2813 89.1133H72.5211ZM91.9597 87.4731V89.093C91.9597 89.984 91.2308 90.7129 90.3398 90.7129C89.4489 90.7129 88.7199 89.984 88.7199 89.093V79.3737C88.7199 78.4828 89.4489 77.7538 90.3398 77.7538C91.2308 77.7538 91.9597 78.4828 91.9597 79.3737V87.4731ZM106.539 90.7129H95.1995V89.093V87.4731V84.2334H106.539V90.7129ZM119.498 98.8123H116.258V95.5726H113.018V106.912H109.778V68.0345H113.018V92.3328H116.258V76.1339H119.498V98.8123ZM125.977 89.093H122.738V85.8533H125.977V89.093Z" fill="url(#paint3_linear)"/>
<path fill-rule="evenodd" clip-rule="evenodd" d="M79.183 29.9267C68.8723 29.9267 60.5138 38.2852 60.5138 48.5959C60.5138 58.9066 68.8723 67.2651 79.183 67.2651C89.4937 67.2651 97.8522 58.9066 97.8522 48.5959C97.8522 38.2852 89.4937 29.9267 79.183 29.9267ZM57.4766 48.5959C57.4766 36.6077 67.1949 26.8894 79.183 26.8894C91.1712 26.8894 100.89 36.6077 100.89 48.5959C100.89 60.584 91.1712 70.3023 79.183 70.3023C67.1949 70.3023 57.4766 60.584 57.4766 48.5959Z" fill="url(#paint4_linear)"/>
</g>
<defs>
<filter id="filter0_d" x="0" y="0" width="158" height="158" filterUnits="userSpaceOnUse" color-interpolation-filters="sRGB">
<feFlood flood-opacity="0" result="BackgroundImageFix"/>
<feColorMatrix in="SourceAlpha" type="matrix" values="0 0 0 0 0 0 0 0 0 0 0 0 0 0 0 0 0 0 127 0"/>
<feOffset dy="4"/>
<feGaussianBlur stdDeviation="2"/>
<feColorMatrix type="matrix" values="0 0 0 0 0 0 0 0 0 0 0 0 0 0 0 0 0 0 0.25 0"/>
<feBlend mode="normal" in2="BackgroundImageFix" result="effect1_dropShadow"/>
<feBlend mode="normal" in="SourceGraphic" in2="effect1_dropShadow" result="shape"/>
</filter>
<linearGradient id="paint0_linear" x1="79" y1="0" x2="79" y2="150" gradientUnits="userSpaceOnUse">
<stop stop-color="#323232"/>
<stop offset="1" stop-color="#383838"/>
</linearGradient>
<linearGradient id="paint1_linear" x1="79.0558" y1="38.5568" x2="79.0558" y2="54.8377" gradientUnits="userSpaceOnUse">
<stop stop-color="#D9A142"/>
<stop offset="1" stop-color="#F2DA6F"/>
</linearGradient>
<linearGradient id="paint2_linear" x1="79.0558" y1="38.5568" x2="79.0558" y2="54.8377" gradientUnits="userSpaceOnUse">
<stop stop-color="#D9A142"/>
<stop offset="1" stop-color="#F2DA6F"/>
</linearGradient>
<linearGradient id="paint3_linear" x1="78.4721" y1="64.7947" x2="78.4721" y2="123.111" gradientUnits="userSpaceOnUse">
<stop stop-color="#D9A142"/>
<stop offset="1" stop-color="#F2DA6F"/>
</linearGradient>
<linearGradient id="paint4_linear" x1="78.9546" y1="26.8894" x2="78.9546" y2="70.3023" gradientUnits="userSpaceOnUse">
<stop stop-color="#D9A142"/>
<stop offset="1" stop-color="#F2DA6F"/>
</linearGradient>
</defs>
</svg>
