<svg width="158" height="158" viewBox="0 0 158 158" fill="none" xmlns="http://www.w3.org/2000/svg">
<g filter="url(#filter0_d)">
<rect x="4" width="150" height="150" fill="url(#paint0_linear)"/>
<path d="M98.513 81.0306C98.3069 80.6185 97.8948 80.3535 97.4386 80.3535H57.6258L65.3087 72.5087C65.3675 72.4351 65.4264 72.3762 65.4706 72.2879C65.5147 72.2438 65.5589 72.1996 65.603 72.1555C67.3692 70.0066 68.3406 67.2837 68.3406 64.4873C68.3406 57.8199 62.9243 52.4036 56.257 52.4036C53.122 52.4036 50.1636 53.5958 47.9117 55.7594L47.897 55.7741L47.8823 55.7888C47.8234 55.833 47.7793 55.8918 47.7204 55.936C47.691 55.9654 47.6762 55.9802 47.6468 56.0096L28.1305 75.5112C21.6544 81.9872 21.6544 92.5255 28.1305 99.0015C31.9572 102.828 37.1969 104.992 42.6132 104.992C42.834 104.992 43.04 104.992 43.2608 104.977H69.6211C70.2834 104.977 70.8133 104.447 70.8133 103.785C70.8133 103.123 70.2834 102.593 69.6211 102.593H43.2461C43.2313 102.593 43.2166 102.593 43.2019 102.593C38.1536 102.769 33.3996 100.885 29.823 97.3089C24.2743 91.7602 24.2743 82.7526 29.823 77.2038C31.9278 75.0991 34.7242 73.9364 37.6973 73.9364C38.8306 73.9364 39.9492 74.113 40.9942 74.4368L34.8714 80.118C34.7095 80.2505 34.5623 80.383 34.4151 80.5301C33.0022 81.9431 32.2221 83.827 32.2221 85.8434C32.2221 87.8451 33.0022 89.729 34.4151 91.1567C36.1372 92.8787 38.4185 93.8207 40.8323 93.8207C43.2608 93.8207 45.5421 92.8787 47.2494 91.1567C47.691 90.7152 48.0736 90.2589 48.4269 89.7732L55.2708 82.7673H94.9659L79.394 102.593H74.0807C73.4184 102.593 72.8886 103.123 72.8886 103.785C72.8886 104.447 73.4184 104.977 74.0807 104.977H79.968C80.336 104.977 80.6745 104.815 80.91 104.521L98.3658 82.2963C98.6602 81.9431 98.7043 81.4427 98.513 81.0306ZM43.3785 75.4965C44.0408 75.8939 44.6737 76.3649 45.2477 76.8947L42.3188 79.7648C41.5682 79.2497 40.7145 78.9259 39.8167 78.7787L43.3785 75.4965ZM46.5871 88.2131C46.4988 88.3014 46.4252 88.4044 46.3663 88.5074C46.1161 88.8312 45.8512 89.155 45.5568 89.4494C44.2911 90.7152 42.6132 91.4069 40.8176 91.4069C39.0219 91.4069 37.3441 90.7152 36.0783 89.4494C35.1069 88.478 34.577 87.1975 34.577 85.8287C34.577 84.4599 35.1069 83.1794 36.0783 82.208C36.7995 81.4868 37.7709 81.0747 38.8012 81.0747C39.8314 81.0747 40.8028 81.4721 41.524 82.208C41.5387 82.2227 41.5535 82.2375 41.5682 82.2522C41.5829 82.2669 41.5976 82.2816 41.6123 82.2963C41.6271 82.3111 41.6418 82.3258 41.6565 82.3405C41.6712 82.3552 41.6859 82.3699 41.7006 82.3699C41.7154 82.3846 41.7301 82.3846 41.7595 82.3994C41.7742 82.4141 41.789 82.4141 41.8037 82.4288C41.8184 82.4435 41.8478 82.4435 41.8626 82.4582C41.8773 82.4729 41.892 82.4729 41.9067 82.4877C41.9214 82.5024 41.9509 82.5024 41.9656 82.5024C41.9803 82.5024 41.995 82.5171 42.0097 82.5171C42.0245 82.5171 42.0539 82.5318 42.0686 82.5318C42.0833 82.5318 42.098 82.5465 42.1128 82.5465C42.1275 82.5465 42.1569 82.5465 42.1716 82.5613C42.1863 82.5613 42.2011 82.5613 42.2158 82.5613C42.2305 82.5613 42.2599 82.5613 42.2894 82.5613C42.3041 82.5613 42.3188 82.5613 42.3335 82.5613C42.3777 82.5613 42.4071 82.5613 42.4513 82.5613H42.466C42.4954 82.5613 42.5396 82.5465 42.569 82.5465C42.5837 82.5465 42.5985 82.5465 42.5985 82.5318C42.6279 82.5318 42.6573 82.5171 42.6721 82.5171C42.6868 82.5171 42.7015 82.5024 42.7162 82.5024C42.7456 82.4877 42.7604 82.4877 42.7898 82.473C42.8045 82.473 42.8192 82.4582 42.834 82.4582C42.8487 82.4435 42.8781 82.4435 42.8928 82.4288C42.9075 82.4141 42.9223 82.4141 42.937 82.3994C42.9517 82.3846 42.9811 82.3846 42.9959 82.3699C43.0106 82.3552 43.0253 82.3552 43.04 82.3405C43.0547 82.3258 43.0694 82.3111 43.0989 82.2963C43.1136 82.2816 43.1283 82.2669 43.143 82.2669C43.1578 82.2522 43.1725 82.2375 43.1872 82.2227L46.749 78.7345C47.6027 80.1033 48.0589 81.6782 48.0589 83.3266C48.1031 85.1075 47.5732 86.7854 46.5871 88.2131ZM50.4433 84.2833C50.6935 81.428 49.8251 78.5138 47.8823 76.203C47.8529 76.1588 47.8234 76.1147 47.7793 76.0852C47.6174 75.8939 47.4408 75.7026 47.2494 75.5259C44.6884 72.965 41.3033 71.5667 37.6826 71.5667C36.8584 71.5667 36.0489 71.6403 35.2394 71.7875L49.5307 57.5108C51.3411 55.7741 53.7107 54.8174 56.2275 54.8174C61.5702 54.8174 65.9268 59.174 65.9268 64.5167C65.9268 66.7539 65.1468 68.9322 63.7338 70.6689C63.7044 70.7131 63.6602 70.7572 63.6455 70.8014C63.6308 70.8161 63.6014 70.8308 63.5866 70.8603L50.4433 84.2833Z" fill="url(#paint1_linear)"/>
<path d="M109.434 53.0954C104.945 48.6653 97.6886 48.6947 93.2437 53.1838C88.8135 57.6728 88.843 64.9289 93.332 69.3738C93.4203 69.4621 93.5234 69.5357 93.6558 69.6387C93.8766 69.8448 94.171 69.9625 94.48 69.9625C94.5978 69.9625 94.7155 69.9478 94.8333 69.9184C95.2454 69.8006 95.5545 69.4621 95.6575 69.05C96.4523 65.7531 98.1302 62.7506 100.485 60.3662C102.855 57.9525 105.843 56.2599 109.139 55.4209C109.552 55.3179 109.875 54.9794 109.993 54.5673C110.111 54.1552 109.993 53.6842 109.684 53.3751C109.64 53.3309 109.478 53.1249 109.434 53.0954ZM98.7778 58.6295C96.6289 60.8078 94.9805 63.4276 93.9502 66.3124C91.5511 62.8242 91.8896 57.9966 94.9805 54.8763C98.0566 51.7561 102.869 51.3587 106.402 53.7136C103.517 54.788 100.912 56.4659 98.7778 58.6295ZM128.494 58.4676C124.873 54.8911 120.119 52.7716 115.041 52.4626C114.394 51.447 113.643 50.505 112.819 49.6955C109.743 46.6489 105.607 44.8827 101.309 45.0151C96.9674 45.0446 92.9052 46.7519 89.8585 49.828C83.5738 56.1863 83.6327 66.489 89.991 72.7884C90.8152 73.6126 91.7572 74.3486 92.7874 74.9814C92.8316 75.6879 92.9788 76.3944 93.0965 77.1009L81.322 77.1303L81.2925 68.2405C81.2925 67.5782 80.7479 67.0336 80.0856 67.0336L70.3422 67.063C70.0184 67.063 69.7093 67.1955 69.4885 67.4163C69.253 67.6518 69.1353 67.9461 69.1353 68.2699L69.15 73.3772L64.0575 73.3919C63.3952 73.3919 62.8506 73.9364 62.8506 74.6135L62.8947 89.3317C62.8947 89.6555 63.0272 89.9646 63.248 90.1854C63.4835 90.4061 63.7778 90.5386 64.1016 90.5386L69.2089 90.5239L69.2236 95.6311C69.2236 96.2934 69.7681 96.838 70.4305 96.838L80.1739 96.8086C80.4977 96.8086 80.8068 96.6761 81.0276 96.4553C81.2631 96.2346 81.3808 95.9255 81.3808 95.6017L81.3514 86.7119L99.3371 86.6677L99.3665 95.5575C99.3665 96.2198 99.9111 96.7644 100.573 96.7644L110.317 96.735C110.641 96.735 110.95 96.6025 111.171 96.3817C111.406 96.161 111.524 95.8519 111.524 95.5281V94.3359C112.274 94.4095 113.025 94.4684 113.776 94.4684C119.354 94.4684 124.682 92.2606 128.685 88.2278C136.81 79.9562 136.736 66.6215 128.494 58.4676ZM65.2938 88.0807L65.2644 75.7909L69.15 75.7762L69.1794 88.0807H65.2938ZM71.6226 94.3801L71.5491 69.4621L78.864 69.4474L78.9376 94.3653L71.6226 94.3801ZM81.3367 84.2539L81.322 79.5441L99.3076 79.4999L99.3223 84.2098L81.3367 84.2539ZM101.766 94.3065L101.692 69.3885L109.007 69.3738L109.081 94.3065H101.766ZM111.45 75.6585L115.336 75.6438L115.365 87.9482H111.48L111.45 75.6585ZM126.934 86.4911C122.871 90.5975 117.249 92.555 111.509 91.878V90.3914L116.602 90.3767C116.925 90.3767 117.234 90.2442 117.455 90.0235C117.676 89.8027 117.808 89.4936 117.808 89.1698L117.764 74.4369C117.764 73.7745 117.22 73.23 116.557 73.23L111.45 73.2447L111.435 68.1522C111.435 67.4899 110.891 66.9453 110.229 66.9453L100.485 66.9747C100.161 66.9747 99.8522 67.1072 99.6314 67.328C99.4106 67.5487 99.2782 67.8578 99.2782 68.1816L99.3076 77.0714L95.525 77.0861C95.3484 76.1442 95.2012 75.1875 95.1718 74.2161C95.1571 73.804 94.9216 73.4213 94.5536 73.2153C93.4792 72.5971 92.5078 71.8759 91.6836 71.0517C86.2673 65.6942 86.2231 56.9369 91.5806 51.5206C94.171 48.9007 97.6297 47.4584 101.324 47.4289C101.353 47.4289 101.368 47.4289 101.398 47.4289C105.062 47.4289 108.507 48.8419 111.097 51.4176C111.921 52.2418 112.672 53.1985 113.275 54.2582C113.481 54.6261 113.864 54.8469 114.291 54.8616C119.001 55.0088 123.445 56.9075 126.787 60.2043C134.072 67.4016 134.146 79.1908 126.934 86.4911Z" fill="url(#paint2_linear)"/>
</g>
<defs>
<filter id="filter0_d" x="0" y="0" width="158" height="158" filterUnits="userSpaceOnUse" color-interpolation-filters="sRGB">
<feFlood flood-opacity="0" result="BackgroundImageFix"/>
<feColorMatrix in="SourceAlpha" type="matrix" values="0 0 0 0 0 0 0 0 0 0 0 0 0 0 0 0 0 0 127 0"/>
<feOffset dy="4"/>
<feGaussianBlur stdDeviation="2"/>
<feColorMatrix type="matrix" values="0 0 0 0 0 0 0 0 0 0 0 0 0 0 0 0 0 0 0.25 0"/>
<feBlend mode="normal" in2="BackgroundImageFix" result="effect1_dropShadow"/>
<feBlend mode="normal" in="SourceGraphic" in2="effect1_dropShadow" result="shape"/>
</filter>
<linearGradient id="paint0_linear" x1="79" y1="0" x2="79" y2="150" gradientUnits="userSpaceOnUse">
<stop stop-color="#323232"/>
<stop offset="1" stop-color="#383838"/>
</linearGradient>
<linearGradient id="paint1_linear" x1="60.5545" y1="52.4036" x2="60.5545" y2="104.992" gradientUnits="userSpaceOnUse">
<stop stop-color="#D9A142"/>
<stop offset="1" stop-color="#F2DA6F"/>
</linearGradient>
<linearGradient id="paint2_linear" x1="98.4107" y1="45.0082" x2="98.4107" y2="96.838" gradientUnits="userSpaceOnUse">
<stop stop-color="#D9A142"/>
<stop offset="1" stop-color="#F2DA6F"/>
</linearGradient>
</defs>
</svg>
